STARTFONT 2.1
COMMENT This font was automatically resized by bdfresize-1.5
COMMENT   mag_x = 2/1, mag_y = 2/1, blackness = 4
FONT -ypn-envypn_b2hdpi-Medium-R-Normal--30-300-75-75-C-180-ISO8859-1
SIZE 30 75 75
FONTBOUNDINGBOX 14 30 0 -6
STARTPROPERTIES 21
FOUNDRY "ypn"
FAMILY_NAME "envypn"
WEIGHT_NAME "Medium"
SLANT "R"
SETWIDTH_NAME "Normal"
SPACING "C"
CHARSET_REGISTRY "ISO8859"
CHARSET_ENCODING "1"
COPYRIGHT "Designed by Ypnose - http://ywstd.fr - Special thanks to mirabilos"
AVERAGE_WIDTH 180
PIXEL_SIZE 30
POINT_SIZE 300
RESOLUTION_X 75
RESOLUTION_Y 75
WEIGHT 10
X_HEIGHT 12
QUAD_WIDTH 7
_GBDFED_INFO "Edited with gbdfed 1.6."
DEFAULT_CHAR 0
FONT_DESCENT 6
FONT_ASCENT 24
ENDPROPERTIES
CHARS 203
STARTCHAR space
ENCODING 32
SWIDTH 448 0
DWIDTH 14 0
BBX 14 30 0 -6
BITMAP
0000
0000
0000
0000
0000
0000
0000
0000
0000
0000
0000
0000
0000
0000
0000
0000
0000
0000
0000
0000
0000
0000
0000
0000
0000
0000
0000
0000
0000
0000
ENDCHAR
STARTCHAR exclamation
ENCODING 33
SWIDTH 448 0
DWIDTH 14 0
BBX 14 30 0 -6
BITMAP
0000
0000
0000
0000
0000
0000
0300
0300
0300
0300
0300
0300
0300
0300
0300
0300
0000
0000
0000
0000
0300
0300
0300
0300
0000
0000
0000
0000
0000
0000
ENDCHAR
STARTCHAR dblquote
ENCODING 34
SWIDTH 448 0
DWIDTH 14 0
BBX 14 30 0 -6
BITMAP
0000
0000
0000
0000
30C0
30C0
30C0
30C0
30C0
30C0
30C0
30C0
0000
0000
0000
0000
0000
0000
0000
0000
0000
0000
0000
0000
0000
0000
0000
0000
0000
0000
ENDCHAR
STARTCHAR nmbrsign
ENCODING 35
SWIDTH 448 0
DWIDTH 14 0
BBX 14 30 0 -6
BITMAP
0000
0000
0000
0000
0000
0000
0000
0000
0CC0
0CC0
0CC0
0CC0
3FF0
3FF0
0CC0
0CC0
3FF0
3FF0
0CC0
0CC0
0CC0
0CC0
0000
0000
0000
0000
0000
0000
0000
0000
ENDCHAR
STARTCHAR dollar
ENCODING 36
SWIDTH 448 0
DWIDTH 14 0
BBX 14 30 0 -6
BITMAP
0000
0000
0000
0000
0000
0000
0300
0300
0FF0
1FF0
3300
3300
3300
3300
1FC0
0FE0
0330
0330
0330
0330
0330
0330
3FE0
3FC0
0300
0300
0000
0000
0000
0000
ENDCHAR
STARTCHAR percent
ENCODING 37
SWIDTH 448 0
DWIDTH 14 0
BBX 14 30 0 -6
BITMAP
0000
0000
0000
0000
0000
0000
1820
3C60
3C60
18C0
00C0
0180
0180
0300
0300
0600
0600
0C00
0C00
1800
18C0
31E0
31E0
20C0
0000
0000
0000
0000
0000
0000
ENDCHAR
STARTCHAR ampersand
ENCODING 38
SWIDTH 448 0
DWIDTH 14 0
BBX 14 30 0 -6
BITMAP
0000
0000
0000
0000
0000
0000
0F00
1F80
30C0
30C0
30C0
30C0
1F80
0F00
0C00
1E00
3710
33B0
31E0
30C0
30C0
31E0
1F70
0F30
0000
0000
0000
0000
0000
0000
ENDCHAR
STARTCHAR sglquote
ENCODING 39
SWIDTH 448 0
DWIDTH 14 0
BBX 14 30 0 -6
BITMAP
0000
0000
0000
0000
0000
0000
0300
0300
0300
0300
0300
0300
0000
0000
0000
0000
0000
0000
0000
0000
0000
0000
0000
0000
0000
0000
0000
0000
0000
0000
ENDCHAR
STARTCHAR leftparent
ENCODING 40
SWIDTH 448 0
DWIDTH 14 0
BBX 14 30 0 -6
BITMAP
0000
0000
0000
0000
00C0
01C0
0380
0700
0600
0E00
0C00
0C00
0C00
0C00
0C00
0C00
0C00
0C00
0C00
0C00
0E00
0600
0700
0380
01C0
00C0
0000
0000
0000
0000
ENDCHAR
STARTCHAR rightparent
ENCODING 41
SWIDTH 448 0
DWIDTH 14 0
BBX 14 30 0 -6
BITMAP
0000
0000
0000
0000
0C00
0E00
0700
0380
0180
01C0
00C0
00C0
00C0
00C0
00C0
00C0
00C0
00C0
00C0
00C0
01C0
0180
0380
0700
0E00
0C00
0000
0000
0000
0000
ENDCHAR
STARTCHAR asterisk
ENCODING 42
SWIDTH 448 0
DWIDTH 14 0
BBX 14 30 0 -6
BITMAP
0000
0000
0000
0000
0000
0000
0000
0000
0000
0000
0300
0300
3330
3B70
1FE0
0FC0
0FC0
1FE0
3B70
3330
0300
0300
0000
0000
0000
0000
0000
0000
0000
0000
ENDCHAR
STARTCHAR plus
ENCODING 43
SWIDTH 448 0
DWIDTH 14 0
BBX 14 30 0 -6
BITMAP
0000
0000
0000
0000
0000
0000
0000
0000
0000
0000
0300
0300
0300
0300
3FF0
3FF0
0300
0300
0300
0300
0000
0000
0000
0000
0000
0000
0000
0000
0000
0000
ENDCHAR
STARTCHAR comma
ENCODING 44
SWIDTH 448 0
DWIDTH 14 0
BBX 14 30 0 -6
BITMAP
0000
0000
0000
0000
0000
0000
0000
0000
0000
0000
0000
0000
0000
0000
0000
0000
0000
0000
0000
0000
03C0
03C0
03C0
03C0
0780
0F00
0E00
0C00
0000
0000
ENDCHAR
STARTCHAR dash
ENCODING 45
SWIDTH 448 0
DWIDTH 14 0
BBX 14 30 0 -6
BITMAP
0000
0000
0000
0000
0000
0000
0000
0000
0000
0000
0000
0000
0000
0000
3FF0
3FF0
0000
0000
0000
0000
0000
0000
0000
0000
0000
0000
0000
0000
0000
0000
ENDCHAR
STARTCHAR dot
ENCODING 46
SWIDTH 448 0
DWIDTH 14 0
BBX 14 30 0 -6
BITMAP
0000
0000
0000
0000
0000
0000
0000
0000
0000
0000
0000
0000
0000
0000
0000
0000
0000
0000
0000
0000
03C0
03C0
03C0
03C0
0000
0000
0000
0000
0000
0000
ENDCHAR
STARTCHAR slashforw
ENCODING 47
SWIDTH 448 0
DWIDTH 14 0
BBX 14 30 0 -6
BITMAP
0000
0000
0000
0000
0030
0030
0060
0060
00C0
00C0
0180
0180
0300
0300
0600
0600
0C00
0C00
1800
1800
3000
3000
6000
6000
0000
0000
0000
0000
0000
0000
ENDCHAR
STARTCHAR zero
ENCODING 48
SWIDTH 448 0
DWIDTH 14 0
BBX 14 30 0 -6
BITMAP
0000
0000
0000
0000
0000
0000
0FC0
1FE0
3030
3030
3030
3070
30F0
31F0
33B0
3730
3E30
3C30
3830
3030
3030
3030
1FE0
0FC0
0000
0000
0000
0000
0000
0000
ENDCHAR
STARTCHAR onehehe
ENCODING 49
SWIDTH 448 0
DWIDTH 14 0
BBX 14 30 0 -6
BITMAP
0000
0000
0000
0000
0000
0000
0300
0700
0F00
1F00
3B00
3300
0300
0300
0300
0300
0300
0300
0300
0300
0300
0300
3FF0
3FF0
0000
0000
0000
0000
0000
0000
ENDCHAR
STARTCHAR two
ENCODING 50
SWIDTH 448 0
DWIDTH 14 0
BBX 14 30 0 -6
BITMAP
0000
0000
0000
0000
0000
0000
0FC0
1FE0
3030
3030
3030
3070
00E0
01C0
0380
0700
0E00
1C00
3800
3000
3000
3000
3FF0
3FF0
0000
0000
0000
0000
0000
0000
ENDCHAR
STARTCHAR three
ENCODING 51
SWIDTH 448 0
DWIDTH 14 0
BBX 14 30 0 -6
BITMAP
0000
0000
0000
0000
0000
0000
3FC0
3FE0
0030
0030
0030
0030
0030
0030
3FE0
3FE0
0030
0030
0030
0030
0030
0030
3FE0
3FC0
0000
0000
0000
0000
0000
0000
ENDCHAR
STARTCHAR four
ENCODING 52
SWIDTH 448 0
DWIDTH 14 0
BBX 14 30 0 -6
BITMAP
0000
0000
0000
0000
0000
0000
3030
3030
3030
3030
3030
3030
3030
3030
1FF0
0FF0
0030
0030
0030
0030
0030
0030
0030
0030
0000
0000
0000
0000
0000
0000
ENDCHAR
STARTCHAR five
ENCODING 53
SWIDTH 448 0
DWIDTH 14 0
BBX 14 30 0 -6
BITMAP
0000
0000
0000
0000
0000
0000
3FF0
3FF0
3000
3000
3000
3000
3000
3000
3FC0
3FE0
0030
0030
0030
0030
0030
0030
3FE0
3FC0
0000
0000
0000
0000
0000
0000
ENDCHAR
STARTCHAR six
ENCODING 54
SWIDTH 448 0
DWIDTH 14 0
BBX 14 30 0 -6
BITMAP
0000
0000
0000
0000
0000
0000
0FC0
1FC0
3000
3000
3000
3000
3000
3000
3FC0
3FE0
3030
3030
3030
3030
3030
3030
1FE0
0FC0
0000
0000
0000
0000
0000
0000
ENDCHAR
STARTCHAR seven
ENCODING 55
SWIDTH 448 0
DWIDTH 14 0
BBX 14 30 0 -6
BITMAP
0000
0000
0000
0000
0000
0000
3FF0
3FF0
0030
0030
0030
0070
00E0
01C0
0380
0300
0300
0300
0300
0300
0300
0300
0300
0300
0000
0000
0000
0000
0000
0000
ENDCHAR
STARTCHAR eight
ENCODING 56
SWIDTH 448 0
DWIDTH 14 0
BBX 14 30 0 -6
BITMAP
0000
0000
0000
0000
0000
0000
0FC0
1FE0
3030
3030
3030
3030
3030
3030
1FE0
1FE0
3030
3030
3030
3030
3030
3030
1FE0
0FC0
0000
0000
0000
0000
0000
0000
ENDCHAR
STARTCHAR nine
ENCODING 57
SWIDTH 448 0
DWIDTH 14 0
BBX 14 30 0 -6
BITMAP
0000
0000
0000
0000
0000
0000
0FF0
1FF0
3030
3030
3030
3030
3030
3030
1FF0
0FF0
0030
0030
0030
0030
0030
0030
3FE0
3FC0
0000
0000
0000
0000
0000
0000
ENDCHAR
STARTCHAR colon
ENCODING 58
SWIDTH 448 0
DWIDTH 14 0
BBX 14 30 0 -6
BITMAP
0000
0000
0000
0000
0000
0000
0000
0000
03C0
03C0
03C0
03C0
0000
0000
0000
0000
0000
0000
03C0
03C0
03C0
03C0
0000
0000
0000
0000
0000
0000
0000
0000
ENDCHAR
STARTCHAR semicolon
ENCODING 59
SWIDTH 448 0
DWIDTH 14 0
BBX 14 30 0 -6
BITMAP
0000
0000
0000
0000
0000
0000
0000
0000
03C0
03C0
03C0
03C0
0000
0000
0000
0000
0000
0000
03C0
03C0
03C0
03C0
0780
0F00
0E00
0C00
0000
0000
0000
0000
ENDCHAR
STARTCHAR lessthan
ENCODING 60
SWIDTH 448 0
DWIDTH 14 0
BBX 14 30 0 -6
BITMAP
0000
0000
0000
0000
0000
0000
0030
0070
00E0
01C0
0380
0700
0E00
1C00
3800
7000
7000
3800
1C00
0E00
0700
0380
01C0
00E0
0070
0030
0000
0000
0000
0000
ENDCHAR
STARTCHAR equalsign
ENCODING 61
SWIDTH 448 0
DWIDTH 14 0
BBX 14 30 0 -6
BITMAP
0000
0000
0000
0000
0000
0000
0000
0000
0000
0000
0000
0000
3FF0
3FF0
0000
0000
0000
0000
3FF0
3FF0
0000
0000
0000
0000
0000
0000
0000
0000
0000
0000
ENDCHAR
STARTCHAR greathan
ENCODING 62
SWIDTH 448 0
DWIDTH 14 0
BBX 14 30 0 -6
BITMAP
0000
0000
0000
0000
0000
0000
3000
3800
1C00
0E00
0700
0380
01C0
00E0
0070
0038
0038
0070
00E0
01C0
0380
0700
0E00
1C00
3800
3000
0000
0000
0000
0000
ENDCHAR
STARTCHAR question
ENCODING 63
SWIDTH 448 0
DWIDTH 14 0
BBX 14 30 0 -6
BITMAP
0000
0000
0000
0000
0000
0000
0FC0
1FE0
3030
3030
3030
3070
00E0
01C0
0380
0300
0300
0000
0000
0000
0300
0300
0300
0300
0000
0000
0000
0000
0000
0000
ENDCHAR
STARTCHAR at
ENCODING 64
SWIDTH 448 0
DWIDTH 14 0
BBX 14 30 0 -6
BITMAP
0000
0000
0000
0000
0000
0000
0000
0000
0FC0
1FE0
3030
3030
33F0
33F0
3330
3330
3330
3330
33F0
33F0
3000
3000
3030
3030
1FE0
0FC0
0000
0000
0000
0000
ENDCHAR
STARTCHAR A
ENCODING 65
SWIDTH 448 0
DWIDTH 14 0
BBX 14 30 0 -6
BITMAP
0000
0000
0000
0000
0000
0000
0FC0
1FE0
3030
3030
3030
3030
3030
3030
3FF0
3FF0
3030
3030
3030
3030
3030
3030
3030
3030
0000
0000
0000
0000
0000
0000
ENDCHAR
STARTCHAR B
ENCODING 66
SWIDTH 448 0
DWIDTH 14 0
BBX 14 30 0 -6
BITMAP
0000
0000
0000
0000
0000
0000
3FC0
3FE0
3030
3030
3030
3030
3030
3030
3FE0
3FE0
3030
3030
3030
3030
3030
3030
3FE0
3FC0
0000
0000
0000
0000
0000
0000
ENDCHAR
STARTCHAR C
ENCODING 67
SWIDTH 448 0
DWIDTH 14 0
BBX 14 30 0 -6
BITMAP
0000
0000
0000
0000
0000
0000
0FC0
1FE0
3030
3030
3000
3000
3000
3000
3000
3000
3000
3000
3000
3000
3030
3030
1FE0
0FC0
0000
0000
0000
0000
0000
0000
ENDCHAR
STARTCHAR D
ENCODING 68
SWIDTH 448 0
DWIDTH 14 0
BBX 14 30 0 -6
BITMAP
0000
0000
0000
0000
0000
0000
3FC0
3FE0
3030
3030
3030
3030
3030
3030
3030
3030
3030
3030
3030
3030
3030
3030
3FE0
3FC0
0000
0000
0000
0000
0000
0000
ENDCHAR
STARTCHAR E
ENCODING 69
SWIDTH 448 0
DWIDTH 14 0
BBX 14 30 0 -6
BITMAP
0000
0000
0000
0000
0000
0000
3FF0
3FF0
3000
3000
3000
3000
3000
3000
3FC0
3FC0
3000
3000
3000
3000
3000
3000
3FF0
3FF0
0000
0000
0000
0000
0000
0000
ENDCHAR
STARTCHAR F
ENCODING 70
SWIDTH 448 0
DWIDTH 14 0
BBX 14 30 0 -6
BITMAP
0000
0000
0000
0000
0000
0000
3FF0
3FF0
3000
3000
3000
3000
3000
3000
3FC0
3FC0
3000
3000
3000
3000
3000
3000
3000
3000
0000
0000
0000
0000
0000
0000
ENDCHAR
STARTCHAR G
ENCODING 71
SWIDTH 448 0
DWIDTH 14 0
BBX 14 30 0 -6
BITMAP
0000
0000
0000
0000
0000
0000
0FC0
1FE0
3030
3030
3000
3000
3000
3000
33F0
33F0
3030
3030
3030
3030
3070
30F0
1FB0
0F30
0000
0000
0000
0000
0000
0000
ENDCHAR
STARTCHAR H
ENCODING 72
SWIDTH 448 0
DWIDTH 14 0
BBX 14 30 0 -6
BITMAP
0000
0000
0000
0000
0000
0000
3030
3030
3030
3030
3030
3030
3030
3030
3FF0
3FF0
3030
3030
3030
3030
3030
3030
3030
3030
0000
0000
0000
0000
0000
0000
ENDCHAR
STARTCHAR I
ENCODING 73
SWIDTH 448 0
DWIDTH 14 0
BBX 14 30 0 -6
BITMAP
0000
0000
0000
0000
0000
0000
3FF0
3FF0
0300
0300
0300
0300
0300
0300
0300
0300
0300
0300
0300
0300
0300
0300
3FF0
3FF0
0000
0000
0000
0000
0000
0000
ENDCHAR
STARTCHAR J
ENCODING 74
SWIDTH 448 0
DWIDTH 14 0
BBX 14 30 0 -6
BITMAP
0000
0000
0000
0000
0000
0000
0FF0
0FF0
0030
0030
0030
0030
0030
0030
0030
0030
0030
0030
0030
0030
3030
3030
1FE0
0FC0
0000
0000
0000
0000
0000
0000
ENDCHAR
STARTCHAR K
ENCODING 75
SWIDTH 448 0
DWIDTH 14 0
BBX 14 30 0 -6
BITMAP
0000
0000
0000
0000
0000
0000
3030
3070
30E0
31C0
3380
3700
3E00
3C00
3C00
3E00
3700
3380
31C0
30E0
3070
3030
3030
3030
0000
0000
0000
0000
0000
0000
ENDCHAR
STARTCHAR L
ENCODING 76
SWIDTH 448 0
DWIDTH 14 0
BBX 14 30 0 -6
BITMAP
0000
0000
0000
0000
0000
0000
3000
3000
3000
3000
3000
3000
3000
3000
3000
3000
3000
3000
3000
3000
3000
3000
3FF0
3FF0
0000
0000
0000
0000
0000
0000
ENDCHAR
STARTCHAR M
ENCODING 77
SWIDTH 448 0
DWIDTH 14 0
BBX 14 30 0 -6
BITMAP
0000
0000
0000
0000
0000
0000
2010
3030
3870
3CF0
3CF0
3FF0
3330
3330
3330
3330
3030
3030
3030
3030
3030
3030
3030
3030
0000
0000
0000
0000
0000
0000
ENDCHAR
STARTCHAR N
ENCODING 78
SWIDTH 448 0
DWIDTH 14 0
BBX 14 30 0 -6
BITMAP
0000
0000
0000
0000
0000
0000
3030
3830
3C30
3E30
3730
33B0
31F0
30F0
3070
3030
3030
3030
3030
3030
3030
3030
3030
3030
0000
0000
0000
0000
0000
0000
ENDCHAR
STARTCHAR O
ENCODING 79
SWIDTH 448 0
DWIDTH 14 0
BBX 14 30 0 -6
BITMAP
0000
0000
0000
0000
0000
0000
0FC0
1FE0
3030
3030
3030
3030
3030
3030
3030
3030
3030
3030
3030
3030
3030
3030
1FE0
0FC0
0000
0000
0000
0000
0000
0000
ENDCHAR
STARTCHAR P
ENCODING 80
SWIDTH 448 0
DWIDTH 14 0
BBX 14 30 0 -6
BITMAP
0000
0000
0000
0000
0000
0000
3FC0
3FE0
3030
3030
3030
3030
3030
3030
3FE0
3FC0
3000
3000
3000
3000
3000
3000
3000
3000
0000
0000
0000
0000
0000
0000
ENDCHAR
STARTCHAR Q
ENCODING 81
SWIDTH 448 0
DWIDTH 14 0
BBX 14 30 0 -6
BITMAP
0000
0000
0000
0000
0000
0000
0FC0
1FE0
3030
3030
3030
3030
3030
3030
3030
3030
3030
3030
31B0
31B0
31F0
30F0
1FF0
0FF0
0038
0038
0018
0000
0000
0000
ENDCHAR
STARTCHAR R
ENCODING 82
SWIDTH 448 0
DWIDTH 14 0
BBX 14 30 0 -6
BITMAP
0000
0000
0000
0000
0000
0000
3FC0
3FE0
3030
3030
3030
3030
3030
3030
3FE0
3FC0
3300
3380
31C0
30C0
30C0
30E0
3070
3030
0000
0000
0000
0000
0000
0000
ENDCHAR
STARTCHAR S
ENCODING 83
SWIDTH 448 0
DWIDTH 14 0
BBX 14 30 0 -6
BITMAP
0000
0000
0000
0000
0000
0000
0FF0
1FF0
3000
3000
3000
3000
3000
3000
1FC0
0FE0
0030
0030
0030
0030
0030
0030
3FE0
3FC0
0000
0000
0000
0000
0000
0000
ENDCHAR
STARTCHAR T
ENCODING 84
SWIDTH 448 0
DWIDTH 14 0
BBX 14 30 0 -6
BITMAP
0000
0000
0000
0000
0000
0000
3FF0
3FF0
0300
0300
0300
0300
0300
0300
0300
0300
0300
0300
0300
0300
0300
0300
0300
0300
0000
0000
0000
0000
0000
0000
ENDCHAR
STARTCHAR U
ENCODING 85
SWIDTH 448 0
DWIDTH 14 0
BBX 14 30 0 -6
BITMAP
0000
0000
0000
0000
0000
0000
3030
3030
3030
3030
3030
3030
3030
3030
3030
3030
3030
3030
3030
3030
3030
3030
1FE0
0FC0
0000
0000
0000
0000
0000
0000
ENDCHAR
STARTCHAR V
ENCODING 86
SWIDTH 448 0
DWIDTH 14 0
BBX 14 30 0 -6
BITMAP
0000
0000
0000
0000
0000
0000
3030
3030
3030
3030
3030
3030
3030
3030
3030
3030
3030
3030
3030
3870
1CE0
0FC0
0780
0300
0000
0000
0000
0000
0000
0000
ENDCHAR
STARTCHAR W
ENCODING 87
SWIDTH 448 0
DWIDTH 14 0
BBX 14 30 0 -6
BITMAP
0000
0000
0000
0000
0000
0000
3030
3030
3030
3030
3030
3030
3030
3030
3330
3330
3330
3330
3FF0
3FF0
3CF0
3CF0
3870
3030
0000
0000
0000
0000
0000
0000
ENDCHAR
STARTCHAR X
ENCODING 88
SWIDTH 448 0
DWIDTH 14 0
BBX 14 30 0 -6
BITMAP
0000
0000
0000
0000
0000
0000
3030
3030
3030
3030
3030
3870
1CE0
0CC0
0780
0780
0CC0
1CE0
3870
3030
3030
3030
3030
3030
0000
0000
0000
0000
0000
0000
ENDCHAR
STARTCHAR Y
ENCODING 89
SWIDTH 448 0
DWIDTH 14 0
BBX 14 30 0 -6
BITMAP
0000
0000
0000
0000
0000
0000
3030
3030
3030
3030
3030
3030
3030
3870
1CE0
0FC0
0700
0300
0300
0300
0300
0300
0300
0300
0000
0000
0000
0000
0000
0000
ENDCHAR
STARTCHAR Z
ENCODING 90
SWIDTH 448 0
DWIDTH 14 0
BBX 14 30 0 -6
BITMAP
0000
0000
0000
0000
0000
0000
3FF0
3FF0
0030
0030
0030
0060
00C0
0180
0300
0600
0C00
1800
3000
3000
3000
3000
3FF0
3FF0
0000
0000
0000
0000
0000
0000
ENDCHAR
STARTCHAR leftbrack
ENCODING 91
SWIDTH 448 0
DWIDTH 14 0
BBX 14 30 0 -6
BITMAP
0000
0000
0000
0000
0FC0
0FC0
0C00
0C00
0C00
0C00
0C00
0C00
0C00
0C00
0C00
0C00
0C00
0C00
0C00
0C00
0C00
0C00
0C00
0C00
0FC0
0FC0
0000
0000
0000
0000
ENDCHAR
STARTCHAR backslash
ENCODING 92
SWIDTH 448 0
DWIDTH 14 0
BBX 14 30 0 -6
BITMAP
0000
0000
0000
0000
3000
3000
1800
1800
0C00
0C00
0600
0600
0300
0300
0180
0180
00C0
00C0
0060
0060
0030
0030
0018
0018
0000
0000
0000
0000
0000
0000
ENDCHAR
STARTCHAR rightbrack
ENCODING 93
SWIDTH 448 0
DWIDTH 14 0
BBX 14 30 0 -6
BITMAP
0000
0000
0000
0000
0FC0
0FC0
00C0
00C0
00C0
00C0
00C0
00C0
00C0
00C0
00C0
00C0
00C0
00C0
00C0
00C0
00C0
00C0
00C0
00C0
0FC0
0FC0
0000
0000
0000
0000
ENDCHAR
STARTCHAR cirumflex
ENCODING 94
SWIDTH 448 0
DWIDTH 14 0
BBX 14 30 0 -6
BITMAP
0000
0000
0000
0000
0000
0000
0000
0000
0300
0780
0FC0
1CE0
3870
3030
2010
0000
0000
0000
0000
0000
0000
0000
0000
0000
0000
0000
0000
0000
0000
0000
ENDCHAR
STARTCHAR underscore
ENCODING 95
SWIDTH 448 0
DWIDTH 14 0
BBX 14 30 0 -6
BITMAP
0000
0000
0000
0000
0000
0000
0000
0000
0000
0000
0000
0000
0000
0000
0000
0000
0000
0000
0000
0000
0000
0000
0000
0000
3FF0
3FF0
0000
0000
0000
0000
ENDCHAR
STARTCHAR grave
ENCODING 96
SWIDTH 448 0
DWIDTH 14 0
BBX 14 30 0 -6
BITMAP
0000
0000
0000
0000
0000
0000
0000
0000
0000
0000
0300
0380
03C0
01C0
00C0
0040
0000
0000
0000
0000
0000
0000
0000
0000
0000
0000
0000
0000
0000
0000
ENDCHAR
STARTCHAR a
ENCODING 97
SWIDTH 448 0
DWIDTH 14 0
BBX 14 30 0 -6
BITMAP
0000
0000
0000
0000
0000
0000
0000
0000
0000
0000
0FF0
1FF0
3030
3030
3030
3030
3030
3030
3030
3030
3030
3030
1FF8
0FF8
0000
0000
0000
0000
0000
0000
ENDCHAR
STARTCHAR b
ENCODING 98
SWIDTH 448 0
DWIDTH 14 0
BBX 14 30 0 -6
BITMAP
0000
0000
0000
0000
0000
0000
3000
3000
3000
3000
3FC0
3FE0
3030
3030
3030
3030
3030
3030
3030
3030
3030
3030
3FE0
3FC0
0000
0000
0000
0000
0000
0000
ENDCHAR
STARTCHAR c
ENCODING 99
SWIDTH 448 0
DWIDTH 14 0
BBX 14 30 0 -6
BITMAP
0000
0000
0000
0000
0000
0000
0000
0000
0000
0000
0FC0
1FE0
3030
3030
3000
3000
3000
3000
3000
3000
3030
3070
1FE0
0FC0
0000
0000
0000
0000
0000
0000
ENDCHAR
STARTCHAR d
ENCODING 100
SWIDTH 448 0
DWIDTH 14 0
BBX 14 30 0 -6
BITMAP
0000
0000
0000
0000
0000
0000
0030
0030
0030
0030
0FF0
1FF0
3030
3030
3030
3030
3030
3030
3030
3030
3030
3030
1FF0
0FF0
0000
0000
0000
0000
0000
0000
ENDCHAR
STARTCHAR e
ENCODING 101
SWIDTH 448 0
DWIDTH 14 0
BBX 14 30 0 -6
BITMAP
0000
0000
0000
0000
0000
0000
0000
0000
0000
0000
0FC0
1FE0
3030
3030
3030
3030
3FE0
3FC0
3000
3000
3000
3000
1FF0
0FF0
0000
0000
0000
0000
0000
0000
ENDCHAR
STARTCHAR f
ENCODING 102
SWIDTH 448 0
DWIDTH 14 0
BBX 14 30 0 -6
BITMAP
0000
0000
0000
0000
0000
0000
03F0
07F0
0C00
0C00
0C00
0C00
3FF0
3FF0
0C00
0C00
0C00
0C00
0C00
0C00
0C00
0C00
0C00
0C00
0000
0000
0000
0000
0000
0000
ENDCHAR
STARTCHAR g
ENCODING 103
SWIDTH 448 0
DWIDTH 14 0
BBX 14 30 0 -6
BITMAP
0000
0000
0000
0000
0000
0000
0000
0000
0000
0000
0FF0
1FF0
3030
3030
3030
3030
3030
3030
3030
3030
3030
3030
1FF0
0FF0
0030
0030
0030
0030
3FE0
3FC0
ENDCHAR
STARTCHAR h
ENCODING 104
SWIDTH 448 0
DWIDTH 14 0
BBX 14 30 0 -6
BITMAP
0000
0000
0000
0000
0000
0000
3000
3000
3000
3000
3FC0
3FE0
3030
3030
3030
3030
3030
3030
3030
3030
3030
3030
3030
3030
0000
0000
0000
0000
0000
0000
ENDCHAR
STARTCHAR i
ENCODING 105
SWIDTH 448 0
DWIDTH 14 0
BBX 14 30 0 -6
BITMAP
0000
0000
0000
0000
0000
0000
0300
0300
0000
0000
3F00
3F00
0300
0300
0300
0300
0300
0300
0300
0300
0300
0300
03F0
03F0
0000
0000
0000
0000
0000
0000
ENDCHAR
STARTCHAR j
ENCODING 106
SWIDTH 448 0
DWIDTH 14 0
BBX 14 30 0 -6
BITMAP
0000
0000
0000
0000
0000
0000
00C0
00C0
0000
0000
0FC0
0FC0
00C0
00C0
00C0
00C0
00C0
00C0
00C0
00C0
00C0
00C0
00C0
00C0
00C0
00C0
00C0
00C0
3F80
3F00
ENDCHAR
STARTCHAR k
ENCODING 107
SWIDTH 448 0
DWIDTH 14 0
BBX 14 30 0 -6
BITMAP
0000
0000
0000
0000
0000
0000
3000
3000
3000
3000
3030
3070
30E0
31C0
3380
3700
3C00
3E00
3700
3380
31C0
30E0
3070
3030
0000
0000
0000
0000
0000
0000
ENDCHAR
STARTCHAR l
ENCODING 108
SWIDTH 448 0
DWIDTH 14 0
BBX 14 30 0 -6
BITMAP
0000
0000
0000
0000
0000
0000
3F00
3F00
0300
0300
0300
0300
0300
0300
0300
0300
0300
0300
0300
0300
0300
0300
03C0
03C0
0000
0000
0000
0000
0000
0000
ENDCHAR
STARTCHAR m
ENCODING 109
SWIDTH 448 0
DWIDTH 14 0
BBX 14 30 0 -6
BITMAP
0000
0000
0000
0000
0000
0000
0000
0000
0000
0000
3FC0
3FE0
3330
3330
3330
3330
3330
3330
3030
3030
3030
3030
3030
3030
0000
0000
0000
0000
0000
0000
ENDCHAR
STARTCHAR n
ENCODING 110
SWIDTH 448 0
DWIDTH 14 0
BBX 14 30 0 -6
BITMAP
0000
0000
0000
0000
0000
0000
0000
0000
0000
0000
3FC0
3FE0
3030
3030
3030
3030
3030
3030
3030
3030
3030
3030
3030
3030
0000
0000
0000
0000
0000
0000
ENDCHAR
STARTCHAR o
ENCODING 111
SWIDTH 448 0
DWIDTH 14 0
BBX 14 30 0 -6
BITMAP
0000
0000
0000
0000
0000
0000
0000
0000
0000
0000
0FC0
1FE0
3030
3030
3030
3030
3030
3030
3030
3030
3030
3030
1FE0
0FC0
0000
0000
0000
0000
0000
0000
ENDCHAR
STARTCHAR p
ENCODING 112
SWIDTH 448 0
DWIDTH 14 0
BBX 14 30 0 -6
BITMAP
0000
0000
0000
0000
0000
0000
0000
0000
0000
0000
3FC0
3FE0
3030
3030
3030
3030
3030
3030
3030
3030
3030
3030
3FE0
3FC0
3000
3000
3000
3000
3000
3000
ENDCHAR
STARTCHAR q
ENCODING 113
SWIDTH 448 0
DWIDTH 14 0
BBX 14 30 0 -6
BITMAP
0000
0000
0000
0000
0000
0000
0000
0000
0000
0000
0FF0
1FF0
3030
3030
3030
3030
3030
3030
3030
3030
3030
3030
1FF0
0FF0
0030
0030
0030
0030
0030
0030
ENDCHAR
STARTCHAR r
ENCODING 114
SWIDTH 448 0
DWIDTH 14 0
BBX 14 30 0 -6
BITMAP
0000
0000
0000
0000
0000
0000
0000
0000
0000
0000
33F0
37F0
3E00
3C00
3000
3000
3000
3000
3000
3000
3000
3000
3000
3000
0000
0000
0000
0000
0000
0000
ENDCHAR
STARTCHAR s
ENCODING 115
SWIDTH 448 0
DWIDTH 14 0
BBX 14 30 0 -6
BITMAP
0000
0000
0000
0000
0000
0000
0000
0000
0000
0000
0FF0
1FF0
3000
3000
3000
3800
1FC0
0FE0
0030
0030
0030
0070
3FE0
3FC0
0000
0000
0000
0000
0000
0000
ENDCHAR
STARTCHAR t
ENCODING 116
SWIDTH 448 0
DWIDTH 14 0
BBX 14 30 0 -6
BITMAP
0000
0000
0000
0000
0000
0000
0C00
0C00
0C00
0C00
3FC0
3FC0
0C00
0C00
0C00
0C00
0C00
0C00
0C00
0C00
0C00
0C00
07F0
03F0
0000
0000
0000
0000
0000
0000
ENDCHAR
STARTCHAR u
ENCODING 117
SWIDTH 448 0
DWIDTH 14 0
BBX 14 30 0 -6
BITMAP
0000
0000
0000
0000
0000
0000
0000
0000
0000
0000
3030
3030
3030
3030
3030
3030
3030
3030
3030
3030
3030
3030
1FF0
0FF0
0000
0000
0000
0000
0000
0000
ENDCHAR
STARTCHAR v
ENCODING 118
SWIDTH 448 0
DWIDTH 14 0
BBX 14 30 0 -6
BITMAP
0000
0000
0000
0000
0000
0000
0000
0000
0000
0000
3030
3030
3030
3030
3030
3030
3030
3030
3030
3870
1CE0
0FC0
0780
0300
0000
0000
0000
0000
0000
0000
ENDCHAR
STARTCHAR w
ENCODING 119
SWIDTH 448 0
DWIDTH 14 0
BBX 14 30 0 -6
BITMAP
0000
0000
0000
0000
0000
0000
0000
0000
0000
0000
3030
3030
3030
3030
3030
3030
3330
3330
3330
3330
3330
3B70
1FE0
0FC0
0000
0000
0000
0000
0000
0000
ENDCHAR
STARTCHAR x
ENCODING 120
SWIDTH 448 0
DWIDTH 14 0
BBX 14 30 0 -6
BITMAP
0000
0000
0000
0000
0000
0000
0000
0000
0000
0000
3030
3030
3030
3870
1C60
0FC0
0780
0780
0FC0
1CE0
3870
3030
3030
3030
0000
0000
0000
0000
0000
0000
ENDCHAR
STARTCHAR y
ENCODING 121
SWIDTH 448 0
DWIDTH 14 0
BBX 14 30 0 -6
BITMAP
0000
0000
0000
0000
0000
0000
0000
0000
0000
0000
3030
3030
3030
3030
3030
3030
3030
3030
3030
3030
3030
3030
1FF0
0FF0
0030
0030
0030
0030
3FE0
3FC0
ENDCHAR
STARTCHAR z
ENCODING 122
SWIDTH 448 0
DWIDTH 14 0
BBX 14 30 0 -6
BITMAP
0000
0000
0000
0000
0000
0000
0000
0000
0000
0000
3FF0
3FF0
0030
0070
00E0
01C0
0380
0700
0E00
1C00
3800
3000
3FF0
3FF0
0000
0000
0000
0000
0000
0000
ENDCHAR
STARTCHAR leftbrace
ENCODING 123
SWIDTH 448 0
DWIDTH 14 0
BBX 14 30 0 -6
BITMAP
0000
0000
0000
0000
00F0
01F0
0300
0300
0300
0300
0300
0300
0300
0300
3E00
3E00
0300
0300
0300
0300
0300
0300
0300
0300
01F0
00F0
0000
0000
0000
0000
ENDCHAR
STARTCHAR vertbar
ENCODING 124
SWIDTH 448 0
DWIDTH 14 0
BBX 14 30 0 -6
BITMAP
0000
0000
0000
0000
0300
0300
0300
0300
0300
0300
0300
0300
0300
0300
0300
0300
0300
0300
0300
0300
0300
0300
0300
0300
0300
0300
0000
0000
0000
0000
ENDCHAR
STARTCHAR rightbrace
ENCODING 125
SWIDTH 448 0
DWIDTH 14 0
BBX 14 30 0 -6
BITMAP
0000
0000
0000
0000
3C00
3E00
0300
0300
0300
0300
0300
0300
0300
0300
01F0
01F0
0300
0300
0300
0300
0300
0300
0300
0300
3E00
3C00
0000
0000
0000
0000
ENDCHAR
STARTCHAR tilde
ENCODING 126
SWIDTH 448 0
DWIDTH 14 0
BBX 14 30 0 -6
BITMAP
0000
0000
0000
0000
0000
0000
0000
0000
0000
0000
0C30
1E30
3330
3330
31E0
30C0
0000
0000
0000
0000
0000
0000
0000
0000
0000
0000
0000
0000
0000
0000
ENDCHAR
STARTCHAR capitalOE
ENCODING 140
SWIDTH 448 0
DWIDTH 14 0
BBX 14 30 0 -6
BITMAP
0000
0000
0000
0000
0000
0000
0FFC
1FFC
30C0
30C0
30C0
30C0
30C0
30C0
30F0
30F0
30C0
30C0
30C0
30C0
30C0
30C0
1FFC
0FFC
0000
0000
0000
0000
0000
0000
ENDCHAR
STARTCHAR smalloe
ENCODING 156
SWIDTH 448 0
DWIDTH 14 0
BBX 14 30 0 -6
BITMAP
0000
0000
0000
0000
0000
0000
0000
0000
0000
0000
0FFC
1FFC
30C0
30C0
30C0
30C0
30FC
30FC
30C0
30C0
30C0
30C0
1FFC
0FFC
0000
0000
0000
0000
0000
0000
ENDCHAR
STARTCHAR nonbreak
ENCODING 160
SWIDTH 448 0
DWIDTH 14 0
BBX 14 30 0 -6
BITMAP
0000
0000
0000
0000
0000
0000
0000
0000
0000
0000
0000
0000
0000
0000
0000
0000
0000
0000
0000
0000
0000
0000
0000
0000
0000
0000
0000
0000
0000
0000
ENDCHAR
STARTCHAR invexcla
ENCODING 161
SWIDTH 448 0
DWIDTH 14 0
BBX 14 30 0 -6
BITMAP
0000
0000
0000
0000
0000
0000
0300
0300
0000
0000
0300
0300
0300
0300
0300
0300
0300
0300
0300
0300
0300
0300
0300
0300
0000
0000
0000
0000
0000
0000
ENDCHAR
STARTCHAR centsign
ENCODING 162
SWIDTH 448 0
DWIDTH 14 0
BBX 14 30 0 -6
BITMAP
0000
0000
0000
0000
0000
0000
0000
0000
0300
0300
0FC0
1FE0
3330
3330
3300
3300
3300
3300
3300
3300
3330
3330
1FE0
0FC0
0300
0300
0000
0000
0000
0000
ENDCHAR
STARTCHAR pound
ENCODING 163
SWIDTH 448 0
DWIDTH 14 0
BBX 14 30 0 -6
BITMAP
0000
0000
0000
0000
00F0
01F0
0300
0300
0300
0300
0300
0300
0FF0
0FF0
0300
0300
0300
0300
0300
0300
0FC0
1FE0
303C
301C
0000
0000
0000
0000
0000
0000
ENDCHAR
STARTCHAR currency
ENCODING 164
SWIDTH 448 0
DWIDTH 14 0
BBX 14 30 0 -6
BITMAP
0000
0000
0000
0000
0000
0000
0000
0000
3030
3870
1FE0
1FE0
3030
3030
3030
3030
3030
3030
1FE0
1FE0
3870
3030
0000
0000
0000
0000
0000
0000
0000
0000
ENDCHAR
STARTCHAR yensign
ENCODING 165
SWIDTH 448 0
DWIDTH 14 0
BBX 14 30 0 -6
BITMAP
0000
0000
0000
0000
0000
0000
3030
3030
3030
3870
1CE0
0FC0
0300
0300
3FF0
3FF0
0300
0300
3FF0
3FF0
0300
0300
0300
0300
0000
0000
0000
0000
0000
0000
ENDCHAR
STARTCHAR brokenbar
ENCODING 166
SWIDTH 448 0
DWIDTH 14 0
BBX 14 30 0 -6
BITMAP
0000
0000
0000
0000
03C0
03C0
03C0
03C0
03C0
03C0
03C0
03C0
0000
0000
0000
0000
03C0
03C0
03C0
03C0
03C0
03C0
03C0
03C0
0000
0000
0000
0000
0000
0000
ENDCHAR
STARTCHAR section
ENCODING 167
SWIDTH 448 0
DWIDTH 14 0
BBX 14 30 0 -6
BITMAP
0000
0000
0000
0000
0000
0000
0FF0
1FF0
3000
3000
3300
3F80
1CC0
1860
3030
3030
1860
0CE0
07F0
0330
0030
0030
3FE0
3FC0
0000
0000
0000
0000
0000
0000
ENDCHAR
STARTCHAR umlaut
ENCODING 168
SWIDTH 448 0
DWIDTH 14 0
BBX 14 30 0 -6
BITMAP
0000
0000
0000
0000
30C0
30C0
30C0
30C0
0000
0000
0000
0000
0000
0000
0000
0000
0000
0000
0000
0000
0000
0000
0000
0000
0000
0000
0000
0000
0000
0000
ENDCHAR
STARTCHAR copyright
ENCODING 169
SWIDTH 448 0
DWIDTH 14 0
BBX 14 30 0 -6
BITMAP
0000
0000
0000
0000
0000
0000
0000
0000
0FC0
1FE0
3030
3030
37B0
37B0
3630
3630
3630
3630
37B0
37B0
3030
3030
1FE0
0FC0
0000
0000
0000
0000
0000
0000
ENDCHAR
STARTCHAR femindic
ENCODING 170
SWIDTH 448 0
DWIDTH 14 0
BBX 14 30 0 -6
BITMAP
0000
0000
0000
0000
03F0
03F0
0030
0030
03F0
03F0
0330
0330
03F0
03F0
0000
0000
0000
0000
0000
0000
0000
0000
0000
0000
0000
0000
0000
0000
0000
0000
ENDCHAR
STARTCHAR leftdlquote
ENCODING 171
SWIDTH 448 0
DWIDTH 14 0
BBX 14 30 0 -6
BITMAP
0000
0000
0000
0000
0000
0000
0000
0000
0000
0000
0330
0660
0CC0
1980
3300
6600
CC00
CC00
6600
3300
1980
0CC0
0660
0330
0000
0000
0000
0000
0000
0000
ENDCHAR
STARTCHAR nological
ENCODING 172
SWIDTH 448 0
DWIDTH 14 0
BBX 14 30 0 -6
BITMAP
0000
0000
0000
0000
0000
0000
0000
0000
0000
0000
0000
0000
0000
0000
3FF0
3FF0
0030
0030
0030
0030
0000
0000
0000
0000
0000
0000
0000
0000
0000
0000
ENDCHAR
STARTCHAR hyphen
ENCODING 173
SWIDTH 448 0
DWIDTH 14 0
BBX 14 30 0 -6
BITMAP
0000
0000
0000
0000
0000
0000
0000
0000
0000
0000
0000
0000
0000
0000
0FC0
0FC0
0000
0000
0000
0000
0000
0000
0000
0000
0000
0000
0000
0000
0000
0000
ENDCHAR
STARTCHAR trademark
ENCODING 174
SWIDTH 448 0
DWIDTH 14 0
BBX 14 30 0 -6
BITMAP
0000
0000
0000
0000
0000
0000
0000
0000
0FC0
1FE0
3030
3030
3FF0
3FF0
3C30
3C30
3C30
3C30
3C30
3C30
3030
3030
1FE0
0FC0
0000
0000
0000
0000
0000
0000
ENDCHAR
STARTCHAR macron
ENCODING 175
SWIDTH 448 0
DWIDTH 14 0
BBX 14 30 0 -6
BITMAP
0000
0000
0000
0000
0000
0000
3FF0
3FF0
0000
0000
0000
0000
0000
0000
0000
0000
0000
0000
0000
0000
0000
0000
0000
0000
0000
0000
0000
0000
0000
0000
ENDCHAR
STARTCHAR degree
ENCODING 176
SWIDTH 448 0
DWIDTH 14 0
BBX 14 30 0 -6
BITMAP
0000
0000
0000
0000
03F0
03F0
0330
0330
0330
0330
03F0
03F0
0000
0000
0000
0000
0000
0000
0000
0000
0000
0000
0000
0000
0000
0000
0000
0000
0000
0000
ENDCHAR
STARTCHAR plusmin
ENCODING 177
SWIDTH 448 0
DWIDTH 14 0
BBX 14 30 0 -6
BITMAP
0000
0000
0000
0000
0000
0000
0000
0000
0000
0000
0300
0300
0300
0300
3FF0
3FF0
0300
0300
0300
0300
3FF0
3FF0
0000
0000
0000
0000
0000
0000
0000
0000
ENDCHAR
STARTCHAR supertwo
ENCODING 178
SWIDTH 448 0
DWIDTH 14 0
BBX 14 30 0 -6
BITMAP
0000
0000
03C0
07E0
0C30
0C30
0C30
0070
00E0
01C0
0380
0700
0E00
0C00
0FF0
0FF0
0000
0000
0000
0000
0000
0000
0000
0000
0000
0000
0000
0000
0000
0000
ENDCHAR
STARTCHAR superthree
ENCODING 179
SWIDTH 448 0
DWIDTH 14 0
BBX 14 30 0 -6
BITMAP
0000
0000
03C0
03E0
0030
0030
0030
0030
03E0
03E0
0030
0030
0030
0030
03E0
03C0
0000
0000
0000
0000
0000
0000
0000
0000
0000
0000
0000
0000
0000
0000
ENDCHAR
STARTCHAR acuteacc
ENCODING 180
SWIDTH 448 0
DWIDTH 14 0
BBX 14 30 0 -6
BITMAP
0000
0000
00C0
01C0
03C0
03C0
0380
0300
0000
0000
0000
0000
0000
0000
0000
0000
0000
0000
0000
0000
0000
0000
0000
0000
0000
0000
0000
0000
0000
0000
ENDCHAR
STARTCHAR micro
ENCODING 181
SWIDTH 448 0
DWIDTH 14 0
BBX 14 30 0 -6
BITMAP
0000
0000
0000
0000
0000
0000
0000
0000
0000
0000
3030
3030
3030
3030
3030
3030
3030
3030
3030
3030
3FF0
3FF0
3000
3000
3000
3000
3000
3000
0000
0000
ENDCHAR
STARTCHAR paragraph
ENCODING 182
SWIDTH 448 0
DWIDTH 14 0
BBX 14 30 0 -6
BITMAP
0000
0000
0000
0000
0000
0000
0000
0000
0000
0000
3F30
3F30
3330
3330
3330
3330
3F30
3F30
0330
0330
0330
0330
0330
0330
0000
0000
0000
0000
0000
0000
ENDCHAR
STARTCHAR middot
ENCODING 183
SWIDTH 448 0
DWIDTH 14 0
BBX 14 30 0 -6
BITMAP
0000
0000
0000
0000
0000
0000
0000
0000
0000
0000
0F00
0F00
0F00
0F00
0000
0000
0000
0000
0000
0000
0000
0000
0000
0000
0000
0000
0000
0000
0000
0000
ENDCHAR
STARTCHAR cedilla
ENCODING 184
SWIDTH 448 0
DWIDTH 14 0
BBX 14 30 0 -6
BITMAP
0000
0000
0000
0000
0000
0000
0000
0000
0000
0000
0000
0000
0000
0000
0000
0000
0000
0000
0000
0000
00C0
01C0
03C0
03C0
0380
0300
0000
0000
0000
0000
ENDCHAR
STARTCHAR superone
ENCODING 185
SWIDTH 448 0
DWIDTH 14 0
BBX 14 30 0 -6
BITMAP
0000
0000
00C0
01C0
03C0
07C0
0EC0
0CC0
00C0
00C0
00C0
00C0
00C0
00C0
03F0
03F0
0000
0000
0000
0000
0000
0000
0000
0000
0000
0000
0000
0000
0000
0000
ENDCHAR
STARTCHAR mascuind
ENCODING 186
SWIDTH 448 0
DWIDTH 14 0
BBX 14 30 0 -6
BITMAP
0000
0000
0000
0000
03F0
03F0
0330
0330
0330
0330
03F0
03F0
0000
0000
0000
0000
0000
0000
0000
0000
0000
0000
0000
0000
0000
0000
0000
0000
0000
0000
ENDCHAR
STARTCHAR rigdlquote
ENCODING 187
SWIDTH 448 0
DWIDTH 14 0
BBX 14 30 0 -6
BITMAP
0000
0000
0000
0000
0000
0000
0000
0000
0000
0000
3300
1980
0CC0
0660
0330
0198
00CC
00CC
0198
0330
0660
0CC0
1980
3300
0000
0000
0000
0000
0000
0000
ENDCHAR
STARTCHAR fractone
ENCODING 188
SWIDTH 448 0
DWIDTH 14 0
BBX 14 30 0 -6
BITMAP
0000
0000
0300
0300
0F00
0F00
0300
0300
0FC0
0FC0
0000
0000
3FF0
3FF0
0000
0000
0CC0
0CC0
0CC0
0CC0
07C0
03C0
00C0
00C0
00C0
00C0
0000
0000
0000
0000
ENDCHAR
STARTCHAR fractwo
ENCODING 189
SWIDTH 448 0
DWIDTH 14 0
BBX 14 30 0 -6
BITMAP
0000
0000
0300
0300
0F00
0F00
0300
0300
0300
0FC0
0FC0
0000
0000
3FF0
3FF0
0000
0F00
1F80
18C0
01C0
0380
0700
0E00
1C00
1FC0
1FC0
0000
0000
0000
0000
ENDCHAR
STARTCHAR fracthree
ENCODING 190
SWIDTH 448 0
DWIDTH 14 0
BBX 14 30 0 -6
BITMAP
0000
0000
0300
0300
0F00
0F00
0300
0300
0FC0
0FC0
0000
0000
3FF0
3FF0
0000
0000
0F00
0F80
00C0
00C0
0F80
0F80
00C0
00C0
0F80
0F00
0000
0000
0000
0000
ENDCHAR
STARTCHAR invquestion
ENCODING 191
SWIDTH 448 0
DWIDTH 14 0
BBX 14 30 0 -6
BITMAP
0000
0000
0000
0000
0000
0000
0300
0300
0300
0300
0000
0000
0000
0300
0300
0380
01C0
00E0
3070
3030
3030
3030
1FE0
0FC0
0000
0000
0000
0000
0000
0000
ENDCHAR
STARTCHAR Agrave
ENCODING 192
SWIDTH 448 0
DWIDTH 14 0
BBX 14 30 0 -6
BITMAP
0C00
0E00
0700
0300
0000
0000
0FC0
1FE0
3030
3030
3030
3030
3030
3030
3FF0
3FF0
3030
3030
3030
3030
3030
3030
3030
3030
0000
0000
0000
0000
0000
0000
ENDCHAR
STARTCHAR Acute
ENCODING 193
SWIDTH 448 0
DWIDTH 14 0
BBX 14 30 0 -6
BITMAP
00C0
01C0
0380
0300
0000
0000
0FC0
1FE0
3030
3030
3030
3030
3030
3030
3FF0
3FF0
3030
3030
3030
3030
3030
3030
3030
3030
0000
0000
0000
0000
0000
0000
ENDCHAR
STARTCHAR Acircum
ENCODING 194
SWIDTH 448 0
DWIDTH 14 0
BBX 14 30 0 -6
BITMAP
0300
0780
0CC0
0840
0000
0000
0FC0
1FE0
3030
3030
3030
3030
3030
3030
3FF0
3FF0
3030
3030
3030
3030
3030
3030
3030
3030
0000
0000
0000
0000
0000
0000
ENDCHAR
STARTCHAR Atilde
ENCODING 195
SWIDTH 448 0
DWIDTH 14 0
BBX 14 30 0 -6
BITMAP
0330
07B0
0EE0
0CC0
0000
0000
0FC0
1FE0
3030
3030
3030
3030
3030
3030
3FF0
3FF0
3030
3030
3030
3030
3030
3030
3030
3030
0000
0000
0000
0000
0000
0000
ENDCHAR
STARTCHAR Adiaeresis
ENCODING 196
SWIDTH 448 0
DWIDTH 14 0
BBX 14 30 0 -6
BITMAP
0000
0000
0CC0
0CC0
0000
0000
0FC0
1FE0
3030
3030
3030
3030
3030
3030
3FF0
3FF0
3030
3030
3030
3030
3030
3030
3030
3030
0000
0000
0000
0000
0000
0000
ENDCHAR
STARTCHAR Aring
ENCODING 197
SWIDTH 448 0
DWIDTH 14 0
BBX 14 30 0 -6
BITMAP
0300
0780
0CC0
0CC0
0780
0300
0FC0
1FE0
3030
3030
3030
3030
3030
3030
3FF0
3FF0
3030
3030
3030
3030
3030
3030
3030
3030
0000
0000
0000
0000
0000
0000
ENDCHAR
STARTCHAR AEligature
ENCODING 198
SWIDTH 448 0
DWIDTH 14 0
BBX 14 30 0 -6
BITMAP
0000
0000
0000
0000
0000
0000
0FFC
1FFC
30C0
30C0
30C0
30C0
30C0
30C0
3FFC
3FFC
30C0
30C0
30C0
30C0
30C0
30C0
30FC
30FC
0000
0000
0000
0000
0000
0000
ENDCHAR
STARTCHAR Cedilla
ENCODING 199
SWIDTH 448 0
DWIDTH 14 0
BBX 14 30 0 -6
BITMAP
0000
0000
0000
0000
0000
0000
0FC0
1FE0
3030
3030
3000
3000
3000
3000
3000
3000
3000
3000
3000
3000
3030
3070
1FE0
0FC0
0300
0300
0F00
0F00
0000
0000
ENDCHAR
STARTCHAR Egrave
ENCODING 200
SWIDTH 448 0
DWIDTH 14 0
BBX 14 30 0 -6
BITMAP
0C00
0E00
0700
0300
0000
0000
3FF0
3FF0
3000
3000
3000
3000
3000
3000
3FC0
3FC0
3000
3000
3000
3000
3000
3000
3FF0
3FF0
0000
0000
0000
0000
0000
0000
ENDCHAR
STARTCHAR Eacute
ENCODING 201
SWIDTH 448 0
DWIDTH 14 0
BBX 14 30 0 -6
BITMAP
00C0
01C0
0380
0300
0000
0000
3FF0
3FF0
3000
3000
3000
3000
3000
3000
3FC0
3FC0
3000
3000
3000
3000
3000
3000
3FF0
3FF0
0000
0000
0000
0000
0000
0000
ENDCHAR
STARTCHAR Ecircum
ENCODING 202
SWIDTH 448 0
DWIDTH 14 0
BBX 14 30 0 -6
BITMAP
0300
0780
0CC0
0CC0
0000
0000
3FF0
3FF0
3000
3000
3000
3000
3000
3000
3FC0
3FC0
3000
3000
3000
3000
3000
3000
3FF0
3FF0
0000
0000
0000
0000
0000
0000
ENDCHAR
STARTCHAR Ediaeresis
ENCODING 203
SWIDTH 448 0
DWIDTH 14 0
BBX 14 30 0 -6
BITMAP
0000
0000
0CC0
0CC0
0000
0000
3FF0
3FF0
3000
3000
3000
3000
3000
3000
3FC0
3FC0
3000
3000
3000
3000
3000
3000
3FF0
3FF0
0000
0000
0000
0000
0000
0000
ENDCHAR
STARTCHAR Igrave
ENCODING 204
SWIDTH 448 0
DWIDTH 14 0
BBX 14 30 0 -6
BITMAP
0C00
0E00
0700
0300
0000
0000
3FF0
3FF0
0300
0300
0300
0300
0300
0300
0300
0300
0300
0300
0300
0300
0300
0300
3FF0
3FF0
0000
0000
0000
0000
0000
0000
ENDCHAR
STARTCHAR Iacute
ENCODING 205
SWIDTH 448 0
DWIDTH 14 0
BBX 14 30 0 -6
BITMAP
00C0
01C0
0380
0300
0000
0000
3FF0
3FF0
0300
0300
0300
0300
0300
0300
0300
0300
0300
0300
0300
0300
0300
0300
3FF0
3FF0
0000
0000
0000
0000
0000
0000
ENDCHAR
STARTCHAR Icircum
ENCODING 206
SWIDTH 448 0
DWIDTH 14 0
BBX 14 30 0 -6
BITMAP
0300
0780
0CC0
0CC0
0000
0000
3FF0
3FF0
0300
0300
0300
0300
0300
0300
0300
0300
0300
0300
0300
0300
0300
0300
3FF0
3FF0
0000
0000
0000
0000
0000
0000
ENDCHAR
STARTCHAR Idiaeresis
ENCODING 207
SWIDTH 448 0
DWIDTH 14 0
BBX 14 30 0 -6
BITMAP
0000
0000
0CC0
0CC0
0000
0000
3FF0
3FF0
0300
0300
0300
0300
0300
0300
0300
0300
0300
0300
0300
0300
0300
0300
3FF0
3FF0
0000
0000
0000
0000
0000
0000
ENDCHAR
STARTCHAR ETH
ENCODING 208
SWIDTH 448 0
DWIDTH 14 0
BBX 14 30 0 -6
BITMAP
0000
0000
0000
0000
0000
0000
3FC0
3FE0
3030
3030
3030
3030
3030
3030
FF30
FF30
3030
3030
3030
3030
3030
3030
3FE0
3FC0
0000
0000
0000
0000
0000
0000
ENDCHAR
STARTCHAR Ntilde
ENCODING 209
SWIDTH 448 0
DWIDTH 14 0
BBX 14 30 0 -6
BITMAP
0330
07B0
0EE0
0CC0
0000
0000
3030
3830
3C30
3E30
3730
33B0
31F0
30F0
3070
3030
3030
3030
3030
3030
3030
3030
3030
3030
0000
0000
0000
0000
0000
0000
ENDCHAR
STARTCHAR Ograve
ENCODING 210
SWIDTH 448 0
DWIDTH 14 0
BBX 14 30 0 -6
BITMAP
0C00
0E00
0700
0300
0000
0000
0FC0
1FE0
3030
3030
3030
3030
3030
3030
3030
3030
3030
3030
3030
3030
3030
3030
1FE0
0FC0
0000
0000
0000
0000
0000
0000
ENDCHAR
STARTCHAR Oacute
ENCODING 211
SWIDTH 448 0
DWIDTH 14 0
BBX 14 30 0 -6
BITMAP
00C0
01C0
0380
0300
0000
0000
0FC0
1FE0
3030
3030
3030
3030
3030
3030
3030
3030
3030
3030
3030
3030
3030
3030
1FE0
0FC0
0000
0000
0000
0000
0000
0000
ENDCHAR
STARTCHAR Ocircum
ENCODING 212
SWIDTH 448 0
DWIDTH 14 0
BBX 14 30 0 -6
BITMAP
0300
0780
0CC0
0CC0
0000
0000
0FC0
1FE0
3030
3030
3030
3030
3030
3030
3030
3030
3030
3030
3030
3030
3030
3030
1FE0
0FC0
0000
0000
0000
0000
0000
0000
ENDCHAR
STARTCHAR Otilde
ENCODING 213
SWIDTH 448 0
DWIDTH 14 0
BBX 14 30 0 -6
BITMAP
0330
07B0
0EE0
0CC0
0000
0000
0FC0
1FE0
3030
3030
3030
3030
3030
3030
3030
3030
3030
3030
3030
3030
3030
3030
1FE0
0FC0
0000
0000
0000
0000
0000
0000
ENDCHAR
STARTCHAR Odiaeresis
ENCODING 214
SWIDTH 448 0
DWIDTH 14 0
BBX 14 30 0 -6
BITMAP
0000
0000
0CC0
0CC0
0000
0000
0FC0
0FC0
3030
3030
3030
3030
3030
3030
3030
3030
3030
3030
3030
3030
3030
3030
0FC0
0FC0
0000
0000
0000
0000
0000
0000
ENDCHAR
STARTCHAR multipli
ENCODING 215
SWIDTH 448 0
DWIDTH 14 0
BBX 14 30 0 -6
BITMAP
0000
0000
0000
0000
0000
0000
0000
0000
0000
0000
3030
3870
1CE0
0FC0
0780
0780
0FC0
1CE0
3870
3030
0000
0000
0000
0000
0000
0000
0000
0000
0000
0000
ENDCHAR
STARTCHAR Oslash
ENCODING 216
SWIDTH 448 0
DWIDTH 14 0
BBX 14 30 0 -6
BITMAP
0000
0000
0000
0000
0000
0000
0FC0
1FE0
303C
303C
3030
3070
30F0
31F0
33B0
3730
3E30
3C30
3830
3030
F030
F030
1FE0
0FC0
0000
0000
0000
0000
0000
0000
ENDCHAR
STARTCHAR Ugrave
ENCODING 217
SWIDTH 448 0
DWIDTH 14 0
BBX 14 30 0 -6
BITMAP
0C00
0E00
0700
0300
0000
0000
3030
3030
3030
3030
3030
3030
3030
3030
3030
3030
3030
3030
3030
3030
3030
3030
1FE0
0FC0
0000
0000
0000
0000
0000
0000
ENDCHAR
STARTCHAR Uacute
ENCODING 218
SWIDTH 448 0
DWIDTH 14 0
BBX 14 30 0 -6
BITMAP
00C0
01C0
0380
0300
0000
0000
3030
3030
3030
3030
3030
3030
3030
3030
3030
3030
3030
3030
3030
3030
3030
3030
1FE0
0FC0
0000
0000
0000
0000
0000
0000
ENDCHAR
STARTCHAR Ucircum
ENCODING 219
SWIDTH 448 0
DWIDTH 14 0
BBX 14 30 0 -6
BITMAP
0300
0780
0CC0
0CC0
0000
0000
3030
3030
3030
3030
3030
3030
3030
3030
3030
3030
3030
3030
3030
3030
3030
3030
1FE0
0FC0
0000
0000
0000
0000
0000
0000
ENDCHAR
STARTCHAR Udiaeresis
ENCODING 220
SWIDTH 448 0
DWIDTH 14 0
BBX 14 30 0 -6
BITMAP
0000
0000
0CC0
0CC0
0000
0000
3030
3030
3030
3030
3030
3030
3030
3030
3030
3030
3030
3030
3030
3030
3030
3030
1FE0
0FC0
0000
0000
0000
0000
0000
0000
ENDCHAR
STARTCHAR Yacute
ENCODING 221
SWIDTH 448 0
DWIDTH 14 0
BBX 14 30 0 -6
BITMAP
00C0
01C0
0380
0300
0000
0000
3030
3030
3030
3030
3030
3030
3030
3870
1CE0
0FC0
0780
0300
0300
0300
0300
0300
0300
0300
0000
0000
0000
0000
0000
0000
ENDCHAR
STARTCHAR THORN
ENCODING 222
SWIDTH 448 0
DWIDTH 14 0
BBX 14 30 0 -6
BITMAP
0000
0000
0000
0000
0000
0000
0000
0000
3C00
3C00
0CF0
0DF8
0F8C
0F0C
0C0C
0C0C
0C0C
0C0C
0F0C
0F8C
0DF8
0CF0
3C00
3C00
0000
0000
0000
0000
0000
0000
ENDCHAR
STARTCHAR smallsharp
ENCODING 223
SWIDTH 448 0
DWIDTH 14 0
BBX 14 30 0 -6
BITMAP
0000
0000
0000
0000
0000
0000
0FC0
1FE0
3030
3030
3030
3030
3030
3030
33E0
33E0
3030
3030
3030
3030
3330
33B0
31E0
30C0
0000
0000
0000
0000
0000
0000
ENDCHAR
STARTCHAR agrave
ENCODING 224
SWIDTH 448 0
DWIDTH 14 0
BBX 14 30 0 -6
BITMAP
0000
0000
0000
0000
0C00
0E00
0700
0300
0000
0000
0FF0
1FF0
3030
3030
3030
3030
3030
3030
3030
3030
3030
3030
1FF8
0FF8
0000
0000
0000
0000
0000
0000
ENDCHAR
STARTCHAR acute
ENCODING 225
SWIDTH 448 0
DWIDTH 14 0
BBX 14 30 0 -6
BITMAP
0000
0000
0000
0000
00C0
01C0
0380
0300
0000
0000
0FF0
1FF0
3030
3030
3030
3030
3030
3030
3030
3030
3030
3030
1FF8
0FF8
0000
0000
0000
0000
0000
0000
ENDCHAR
STARTCHAR acircum
ENCODING 226
SWIDTH 448 0
DWIDTH 14 0
BBX 14 30 0 -6
BITMAP
0000
0000
0000
0000
0300
0780
0CC0
0840
0000
0000
0FF0
1FF0
3030
3030
3030
3030
3030
3030
3030
3030
3030
3030
1FF8
0FF8
0000
0000
0000
0000
0000
0000
ENDCHAR
STARTCHAR atilde
ENCODING 227
SWIDTH 448 0
DWIDTH 14 0
BBX 14 30 0 -6
BITMAP
0000
0000
0000
0000
0330
07B0
0DE0
0CC0
0000
0000
0FF0
1FF0
3030
3030
3030
3030
3030
3030
3030
3030
3030
3030
1FF8
0FF8
0000
0000
0000
0000
0000
0000
ENDCHAR
STARTCHAR adiaeresis
ENCODING 228
SWIDTH 448 0
DWIDTH 14 0
BBX 14 30 0 -6
BITMAP
0000
0000
0000
0000
0000
0000
0CC0
0CC0
0000
0000
0FF0
1FF0
3030
3030
3030
3030
3030
3030
3030
3030
3030
3030
1FF8
0FF8
0000
0000
0000
0000
0000
0000
ENDCHAR
STARTCHAR aring
ENCODING 229
SWIDTH 448 0
DWIDTH 14 0
BBX 14 30 0 -6
BITMAP
0000
0000
0000
0000
0300
0780
0CC0
0CC0
0780
0300
0FF0
1FF0
3030
3030
3030
3030
3030
3030
3030
3030
3030
3030
1FF8
0FF8
0000
0000
0000
0000
0000
0000
ENDCHAR
STARTCHAR aeligature
ENCODING 230
SWIDTH 448 0
DWIDTH 14 0
BBX 14 30 0 -6
BITMAP
0000
0000
0000
0000
0000
0000
0000
0000
0000
0000
0FFC
0FFC
00C0
00C0
00C0
00C0
3FFC
3FFC
30C0
30C0
30C0
30C0
1FFC
0FFC
0000
0000
0000
0000
0000
0000
ENDCHAR
STARTCHAR ccedilla
ENCODING 231
SWIDTH 448 0
DWIDTH 14 0
BBX 14 30 0 -6
BITMAP
0000
0000
0000
0000
0000
0000
0000
0000
0000
0000
0FC0
1FE0
3030
3030
3000
3000
3000
3000
3000
3000
3030
3030
1FE0
0FC0
0300
0300
0F00
0F00
0000
0000
ENDCHAR
STARTCHAR egrave
ENCODING 232
SWIDTH 448 0
DWIDTH 14 0
BBX 14 30 0 -6
BITMAP
0000
0000
0000
0000
0C00
0E00
0700
0300
0000
0000
0FC0
1FE0
3030
3030
3030
3030
3FF0
3FF0
3000
3000
3000
3000
1FF0
0FF0
0000
0000
0000
0000
0000
0000
ENDCHAR
STARTCHAR eacute
ENCODING 233
SWIDTH 448 0
DWIDTH 14 0
BBX 14 30 0 -6
BITMAP
0000
0000
0000
0000
00C0
01C0
0380
0300
0000
0000
0FC0
1FE0
3030
3030
3030
3030
3FF0
3FF0
3000
3000
3000
3000
1FF0
0FF0
0000
0000
0000
0000
0000
0000
ENDCHAR
STARTCHAR ecircum
ENCODING 234
SWIDTH 448 0
DWIDTH 14 0
BBX 14 30 0 -6
BITMAP
0000
0000
0000
0000
0300
0780
0CC0
0CC0
0000
0000
0FC0
1FE0
3030
3030
3030
3030
3FF0
3FF0
3000
3000
3000
3000
1FF0
0FF0
0000
0000
0000
0000
0000
0000
ENDCHAR
STARTCHAR ediaeresis
ENCODING 235
SWIDTH 448 0
DWIDTH 14 0
BBX 14 30 0 -6
BITMAP
0000
0000
0000
0000
0000
0000
0CC0
0CC0
0000
0000
0FC0
1FE0
3030
3030
3030
3030
3FF0
3FF0
3000
3000
3000
3000
1FF0
0FF0
0000
0000
0000
0000
0000
0000
ENDCHAR
STARTCHAR igrave
ENCODING 236
SWIDTH 448 0
DWIDTH 14 0
BBX 14 30 0 -6
BITMAP
0000
0000
0000
0000
0C00
0E00
0700
0300
0000
0000
3F00
3F00
0300
0300
0300
0300
0300
0300
0300
0300
0300
0300
03F0
03F0
0000
0000
0000
0000
0000
0000
ENDCHAR
STARTCHAR iacute
ENCODING 237
SWIDTH 448 0
DWIDTH 14 0
BBX 14 30 0 -6
BITMAP
0000
0000
0000
0000
00C0
01C0
0380
0300
0000
0000
3F00
3F00
0300
0300
0300
0300
0300
0300
0300
0300
0300
0300
03F0
03F0
0000
0000
0000
0000
0000
0000
ENDCHAR
STARTCHAR icircum
ENCODING 238
SWIDTH 448 0
DWIDTH 14 0
BBX 14 30 0 -6
BITMAP
0000
0000
0000
0000
0300
0780
0CC0
0CC0
0000
0000
3F00
3F00
0300
0300
0300
0300
0300
0300
0300
0300
0300
0300
03F0
03F0
0000
0000
0000
0000
0000
0000
ENDCHAR
STARTCHAR idiaeresis
ENCODING 239
SWIDTH 448 0
DWIDTH 14 0
BBX 14 30 0 -6
BITMAP
0000
0000
0000
0000
0000
0000
0CC0
0CC0
0000
0000
3F00
3F00
0300
0300
0300
0300
0300
0300
0300
0300
0300
0300
03F0
03F0
0000
0000
0000
0000
0000
0000
ENDCHAR
STARTCHAR eth
ENCODING 240
SWIDTH 448 0
DWIDTH 14 0
BBX 14 30 0 -6
BITMAP
0000
0000
0300
0380
00C0
00C0
0F80
0F00
0000
0000
0FC0
1FE0
3030
3030
3030
3030
3030
3030
3030
3030
3030
3030
1FE0
0FC0
0000
0000
0000
0000
0000
0000
ENDCHAR
STARTCHAR ntilde
ENCODING 241
SWIDTH 448 0
DWIDTH 14 0
BBX 14 30 0 -6
BITMAP
0000
0000
0000
0000
0330
07B0
0EE0
0CC0
0000
0000
3FC0
3FE0
3030
3030
3030
3030
3030
3030
3030
3030
3030
3030
3030
3030
0000
0000
0000
0000
0000
0000
ENDCHAR
STARTCHAR ograve
ENCODING 242
SWIDTH 448 0
DWIDTH 14 0
BBX 14 30 0 -6
BITMAP
0000
0000
0000
0000
0C00
0E00
0700
0300
0000
0000
0FC0
1FE0
3030
3030
3030
3030
3030
3030
3030
3030
3030
3030
1FE0
0FC0
0000
0000
0000
0000
0000
0000
ENDCHAR
STARTCHAR oacute
ENCODING 243
SWIDTH 448 0
DWIDTH 14 0
BBX 14 30 0 -6
BITMAP
0000
0000
0000
0000
00C0
01C0
0380
0300
0000
0000
0FC0
1FE0
3030
3030
3030
3030
3030
3030
3030
3030
3030
3030
1FE0
0FC0
0000
0000
0000
0000
0000
0000
ENDCHAR
STARTCHAR ocircum
ENCODING 244
SWIDTH 448 0
DWIDTH 14 0
BBX 14 30 0 -6
BITMAP
0000
0000
0000
0000
0300
0780
0CC0
0CC0
0000
0000
0FC0
1FE0
3030
3030
3030
3030
3030
3030
3030
3030
3030
3030
1FE0
0FC0
0000
0000
0000
0000
0000
0000
ENDCHAR
STARTCHAR otilde
ENCODING 245
SWIDTH 448 0
DWIDTH 14 0
BBX 14 30 0 -6
BITMAP
0000
0000
0000
0000
0330
07B0
0EE0
0CC0
0000
0000
0FC0
1FE0
3030
3030
3030
3030
3030
3030
3030
3030
3030
3030
1FE0
0FC0
0000
0000
0000
0000
0000
0000
ENDCHAR
STARTCHAR odiaeresis
ENCODING 246
SWIDTH 448 0
DWIDTH 14 0
BBX 14 30 0 -6
BITMAP
0000
0000
0000
0000
0000
0000
0CC0
0CC0
0000
0000
0FC0
1FE0
3030
3030
3030
3030
3030
3030
3030
3030
3030
3030
1FE0
0FC0
0000
0000
0000
0000
0000
0000
ENDCHAR
STARTCHAR division
ENCODING 247
SWIDTH 448 0
DWIDTH 14 0
BBX 14 30 0 -6
BITMAP
0000
0000
0000
0000
0000
0000
0000
0000
0300
0300
0300
0300
0000
0000
3FF0
3FF0
0000
0000
0300
0300
0300
0300
0000
0000
0000
0000
0000
0000
0000
0000
ENDCHAR
STARTCHAR oslash
ENCODING 248
SWIDTH 448 0
DWIDTH 14 0
BBX 14 30 0 -6
BITMAP
0000
0000
0000
0000
0000
0000
0000
0000
0000
0000
0FCC
1FFC
3038
3070
30F0
31F0
33B0
3730
3E30
3C30
3830
7030
FFE0
CFC0
0000
0000
0000
0000
0000
0000
ENDCHAR
STARTCHAR ugrave
ENCODING 249
SWIDTH 448 0
DWIDTH 14 0
BBX 14 30 0 -6
BITMAP
0000
0000
0000
0000
0C00
0E00
0700
0300
0000
0000
3030
3030
3030
3030
3030
3030
3030
3030
3030
3030
3030
3030
1FF0
0FF0
0000
0000
0000
0000
0000
0000
ENDCHAR
STARTCHAR uacute
ENCODING 250
SWIDTH 448 0
DWIDTH 14 0
BBX 14 30 0 -6
BITMAP
0000
0000
0000
0000
00C0
01C0
0380
0300
0000
0000
3030
3030
3030
3030
3030
3030
3030
3030
3030
3030
3030
3030
1FF0
0FF0
0000
0000
0000
0000
0000
0000
ENDCHAR
STARTCHAR ucircum
ENCODING 251
SWIDTH 448 0
DWIDTH 14 0
BBX 14 30 0 -6
BITMAP
0000
0000
0000
0000
0300
0780
0CC0
0CC0
0000
0000
3030
3030
3030
3030
3030
3030
3030
3030
3030
3030
3030
3030
1FF0
0FF0
0000
0000
0000
0000
0000
0000
ENDCHAR
STARTCHAR udiaeresis
ENCODING 252
SWIDTH 448 0
DWIDTH 14 0
BBX 14 30 0 -6
BITMAP
0000
0000
0000
0000
0000
0000
0CC0
0CC0
0000
0000
3030
3030
3030
3030
3030
3030
3030
3030
3030
3030
3030
3030
1FF0
0FF0
0000
0000
0000
0000
0000
0000
ENDCHAR
STARTCHAR yacute
ENCODING 253
SWIDTH 448 0
DWIDTH 14 0
BBX 14 30 0 -6
BITMAP
0000
0000
0000
0000
00C0
01C0
0380
0300
0000
0000
3030
3030
3030
3030
3030
3030
3030
3030
3030
3030
3030
3030
1FF0
0FF0
0030
0030
0030
0030
3FE0
3FC0
ENDCHAR
STARTCHAR thorn
ENCODING 254
SWIDTH 448 0
DWIDTH 14 0
BBX 14 30 0 -6
BITMAP
0000
0000
0000
0000
0000
0000
3C00
3C00
0C00
0C00
0CC0
0DE0
0FB0
0F30
0C30
0C30
0C30
0C30
0F30
0FB0
0DE0
0CC0
0C00
0C00
3C00
3C00
0000
0000
0000
0000
ENDCHAR
STARTCHAR ydiaeresis
ENCODING 255
SWIDTH 448 0
DWIDTH 14 0
BBX 14 30 0 -6
BITMAP
0000
0000
0000
0000
0000
0000
0CC0
0CC0
0000
0000
3030
3030
3030
3030
3030
3030
3030
3030
3030
3030
3030
3030
1FF0
0FF0
0030
0030
0030
0030
3FE0
3FC0
ENDCHAR
STARTCHAR char9679
ENCODING 9679
SWIDTH 448 0
DWIDTH 14 0
BBX 14 30 0 -6
BITMAP
0000
0000
0000
0000
0000
0000
0000
0000
0FC0
1FE0
3FF0
7FF8
FFFC
FFFC
FFFC
FFFC
FFFC
FFFC
7FF8
3FF0
1FE0
0FC0
0000
0000
0000
0000
0000
0000
0000
0000
ENDCHAR
STARTCHAR char10008
ENCODING 10008
SWIDTH 448 0
DWIDTH 14 0
BBX 14 30 0 -6
BITMAP
0000
0000
0000
0000
0000
0000
0000
0000
E01C
F03C
F87C
7CF8
3FF0
1FE0
0FC0
0FC0
1FE0
3FF0
7CF8
F87C
F03C
E01C
0000
0000
0000
0000
0000
0000
0000
0000
ENDCHAR
STARTCHAR char10010
ENCODING 10010
SWIDTH 448 0
DWIDTH 14 0
BBX 14 30 0 -6
BITMAP
0000
0000
0000
0000
0000
0000
0000
0000
0FC0
0FC0
0FC0
0FC0
FFFC
FFFC
FFFC
FFFC
FFFC
FFFC
0FC0
0FC0
0FC0
0FC0
0000
0000
0000
0000
0000
0000
0000
0000
ENDCHAR
STARTCHAR versioncontrolbranch
ENCODING 57504
SWIDTH 448 0
DWIDTH 14 0
BBX 14 30 0 -6
BITMAP
0000
0000
F000
F000
F0F0
F0F0
F3FC
F3FC
F0F0
F0F0
F0F0
F0F0
E3F0
C7F0
8FE0
1FC0
3F80
7F00
FE00
FC00
F800
F000
F000
F000
F000
F000
F000
F000
0000
0000
ENDCHAR
STARTCHAR lnsymbol
ENCODING 57505
SWIDTH 448 0
DWIDTH 14 0
BBX 14 30 0 -6
BITMAP
0000
0000
3000
3000
3000
3000
3000
3000
3000
3000
3000
3000
3FF0
3FF0
0000
0000
0C0C
0E0C
0F0C
0F8C
0DCC
0CEC
0C7C
0C3C
0C1C
0C0C
0C0C
0C0C
0000
0000
ENDCHAR
STARTCHAR closedpadlock
ENCODING 57506
SWIDTH 448 0
DWIDTH 14 0
BBX 14 30 0 -6
BITMAP
0000
0000
0000
0000
3FF0
3FF0
3030
3030
3030
3030
3030
3030
FFFC
FFFC
FCFC
FCFC
F03C
F03C
FCFC
FCFC
FCFC
FCFC
FFFC
FFFC
FFFC
FFFC
0000
0000
0000
0000
ENDCHAR
STARTCHAR rightwardsblackarrowhead
ENCODING 57520
SWIDTH 448 0
DWIDTH 14 0
BBX 14 30 0 -6
BITMAP
0000
0000
8000
C000
E000
F000
F800
FC00
FE00
FF00
FF80
FFC0
FFE0
FFF0
FFF8
FFF8
FFF0
FFE0
FFC0
FF80
FF00
FE00
FC00
F800
F000
E000
C000
8000
0000
0000
ENDCHAR
STARTCHAR rightwardsarrowhead
ENCODING 57521
SWIDTH 448 0
DWIDTH 14 0
BBX 14 30 0 -6
BITMAP
0000
0000
C000
E000
F000
7800
3C00
1E00
0F00
0780
03C0
01E0
00F0
0078
003C
003C
0078
00F0
01E0
03C0
0780
0F00
1E00
3C00
7800
F000
E000
C000
0000
0000
ENDCHAR
STARTCHAR leftwardsblackarrowhead
ENCODING 57522
SWIDTH 448 0
DWIDTH 14 0
BBX 14 30 0 -6
BITMAP
0000
0000
0004
000C
001C
003C
007C
00FC
01FC
03FC
07FC
0FFC
1FFC
3FFC
7FFC
7FFC
3FFC
1FFC
0FFC
07FC
03FC
01FC
00FC
007C
003C
001C
000C
0004
0000
0000
ENDCHAR
STARTCHAR leftwardsarrowhead
ENCODING 57523
SWIDTH 448 0
DWIDTH 14 0
BBX 14 30 0 -6
BITMAP
0000
0000
000C
001C
003C
0078
00F0
01E0
03C0
0780
0F00
1E00
3C00
7800
F000
F000
7800
3C00
1E00
0F00
0780
03C0
01E0
00F0
0078
003C
001C
000C
0000
0000
ENDCHAR
ENDFONT
